<?xml version="1.0" encoding="iso-8859-1"?>
<!-- Generator: Adobe Illustrator 19.0.0, SVG Export Plug-In . SVG Version: 6.00 Build 0)  -->
<svg version="1.1" id="Layer_1" xmlns="http://www.w3.org/2000/svg" xmlns:xlink="http://www.w3.org/1999/xlink" x="0px" y="0px"
	 viewBox="0 0 512 512" style="enable-background:new 0 0 512 512;" xml:space="preserve"
	 width="36px" height="36px">
<polygon style="fill:#2B3E62;" points="0,118.904 512,118.904 512,75.704 194.848,75.704 169.184,50.312 30.72,50.312 0,81.032 "/>
<rect y="118.904" style="fill:#3E68B7;" width="512" height="342.768"/>
<g style="opacity:0.5;">
	<rect y="449.112" style="fill:#2B3E62;" width="512" height="12.576"/>
</g>
<g style="opacity:0.3;">
	<path style="fill:#2B3E62;" d="M264.096,181.448c-61.008,0-110.656,49.648-110.656,110.672s49.648,110.672,110.656,110.672
		c61.024,0,110.672-49.648,110.672-110.672S325.136,181.448,264.096,181.448z M358.576,288.12h-86.464v-90.272
		C319.248,201.832,356.56,240.456,358.576,288.12z M264.096,386.792c-52.192,0-94.656-42.464-94.656-94.672
		c0-49.504,38.208-90.176,86.656-94.272V304.12H357.92C352,350.664,312.224,386.792,264.096,386.792z"/>
</g>
<g>
	<rect x="20.704" y="97.32" style="fill:#FFFFFF;" width="470.592" height="21.584"/>
	<path style="fill:#FFFFFF;" d="M366.672,284.008c0-61.008-49.648-110.656-110.672-110.656
		c-61.008,0-110.656,49.648-110.656,110.656c0,61.024,49.648,110.672,110.656,110.672
		C317.024,394.68,366.672,345.032,366.672,284.008z M350.464,280.008H264v-90.256C311.136,193.736,348.464,232.36,350.464,280.008z
		 M161.344,284.008c0-49.488,38.208-90.16,86.656-94.256v106.256h101.824c-5.92,46.544-45.696,82.672-93.824,82.672
		C203.808,378.68,161.344,336.216,161.344,284.008z"/>
</g>
<g>
</g>
<g>
</g>
<g>
</g>
<g>
</g>
<g>
</g>
<g>
</g>
<g>
</g>
<g>
</g>
<g>
</g>
<g>
</g>
<g>
</g>
<g>
</g>
<g>
</g>
<g>
</g>
<g>
</g>
</svg>
