<?xml version="1.0" encoding="iso-8859-1"?>
<!-- Generator: Adobe Illustrator 19.0.0, SVG Export Plug-In . SVG Version: 6.00 Build 0)  -->
<svg version="1.1" id="Layer_1" xmlns="http://www.w3.org/2000/svg" xmlns:xlink="http://www.w3.org/1999/xlink" x="0px" y="0px"
	 viewBox="0 0 512 512" style="enable-background:new 0 0 512 512;" xml:space="preserve"
	 width="36px" height="36px">
<polygon style="fill:#2B3E62;" points="0,118.904 512,118.904 512,75.704 194.848,75.704 169.184,50.312 30.72,50.312 0,81.032 "/>
<rect y="118.904" style="fill:#3E68B7;" width="512" height="342.768"/>
<g style="opacity:0.5;">
	<rect y="449.112" style="fill:#2B3E62;" width="512" height="12.576"/>
</g>
<g style="opacity:0.3;">
	<path style="fill:#2B3E62;" d="M349.312,385.112V224.648h14.528v-16h-57.808v-31.536h-83.84v31.552h-57.808v16h14.528v160.448
		c0,12.16,9.888,22.048,22.032,22.048H327.28C339.424,407.144,349.312,397.256,349.312,385.112z M238.192,193.112h51.84v15.552
		h-51.84L238.192,193.112L238.192,193.112z M327.28,391.144H200.944c-3.264,0-6.032-2.768-6.032-6.048V224.648h27.28h83.84h27.28
		v160.464C333.312,388.392,330.544,391.144,327.28,391.144z"/>
	<rect x="225.44" y="257.272" style="fill:#E0A02F;" width="16" height="101.76"/>
	<rect x="256.16" y="257.272" style="fill:#E0A02F;" width="16" height="101.76"/>
	<rect x="286.816" y="257.272" style="fill:#E0A02F;" width="16" height="101.76"/>
</g>
<g>
	<rect x="20.704" y="97.32" style="fill:#FFFFFF;" width="470.592" height="21.584"/>
	<path style="fill:#FFFFFF;" d="M214.08,168.984v31.568h-57.808v16H170.8V377c0,12.144,9.888,22.032,22.032,22.032h126.336
		c12.144,0,22.032-9.888,22.032-22.032V216.552h14.528v-16H297.92v-31.568H214.08z M230.08,184.984h51.84v15.568h-51.84
		L230.08,184.984L230.08,184.984z M325.2,216.552V377c0,3.328-2.704,6.032-6.032,6.032H192.832c-3.328,0-6.032-2.704-6.032-6.032
		V216.552h27.28h83.84H325.2z"/>
	<rect x="217.296" y="249.208" style="fill:#FFFFFF;" width="16" height="101.776"/>
	<rect x="248" y="249.208" style="fill:#FFFFFF;" width="16" height="101.776"/>
	<rect x="278.704" y="249.208" style="fill:#FFFFFF;" width="16" height="101.776"/>
</g>
<g>
</g>
<g>
</g>
<g>
</g>
<g>
</g>
<g>
</g>
<g>
</g>
<g>
</g>
<g>
</g>
<g>
</g>
<g>
</g>
<g>
</g>
<g>
</g>
<g>
</g>
<g>
</g>
<g>
</g>
</svg>
