<?xml version="1.0" encoding="iso-8859-1"?>
<!-- Generator: Adobe Illustrator 19.0.0, SVG Export Plug-In . SVG Version: 6.00 Build 0)  -->
<svg version="1.1" id="Layer_1" xmlns="http://www.w3.org/2000/svg" xmlns:xlink="http://www.w3.org/1999/xlink" x="0px" y="0px"
	 viewBox="0 0 512 512" style="enable-background:new 0 0 512 512;" xml:space="preserve"
	 width="36px" height="36px">
<polygon style="fill:#2B3E62;" points="0,118.904 512,118.904 512,75.704 194.848,75.704 169.184,50.312 30.72,50.312 0,81.032 "/>
<rect y="118.904" style="fill:#3E68B7;" width="512" height="342.768"/>
<g style="opacity:0.5;">
	<rect y="449.112" style="fill:#2B3E62;" width="512" height="12.576"/>
</g>
<g style="opacity:0.3;">
	<path style="fill:#2B3E62;" d="M181.968,389.096H346.24c38.64,0,70.08-31.456,70.08-70.128c0-37.648-29.776-68.448-66.992-70.064
		c-6.976-23.664-31.072-39.984-56.992-33.936c-13.584-16.336-33.68-25.936-54.848-25.936c-35.92,0-65.76,26.64-70.56,61.728
		c-31.792,7.008-55.04,35.264-55.04,68.192C111.888,357.64,143.328,389.096,181.968,389.096z M175.328,265.544l6.672-0.832
		l0.32-6.72c1.424-29.696,25.664-52.96,55.184-52.96c17.872,0,34.816,8.88,45.28,23.744l3.488,4.944l5.696-2
		c3.808-1.328,7.312-1.984,10.672-1.984c16.112,0,30.016,12.144,32.336,28.24l0.992,6.848h10.272
		c29.808,0,54.08,24.288,54.08,54.128s-24.272,54.128-54.08,54.128H181.968c-29.808,0-54.08-24.288-54.08-54.128
		C127.888,291.912,148.272,268.952,175.328,265.544z"/>
</g>
<g>
	<rect x="20.704" y="97.32" style="fill:#FFFFFF;" width="470.592" height="21.584"/>
	<path style="fill:#FFFFFF;" d="M284.24,206.872c-13.584-16.336-33.68-25.936-54.848-25.936c-35.92,0-65.76,26.64-70.56,61.728
		c-31.792,7.008-55.04,35.264-55.04,68.192c0,38.672,31.44,70.128,70.08,70.128H338.16c38.64,0,70.08-31.456,70.08-70.128
		c0-37.648-29.776-68.448-66.992-70.064C334.272,217.144,310.16,200.824,284.24,206.872z M392.224,310.872
		c0,29.84-24.272,54.128-54.08,54.128H173.856c-29.808,0-54.08-24.288-54.08-54.128c0-27.056,20.384-50.016,47.44-53.424
		l6.672-0.832l0.32-6.72c1.424-29.696,25.664-52.96,55.184-52.96c17.872,0,34.816,8.88,45.28,23.744l3.488,4.944l5.696-2
		c3.808-1.328,7.312-1.984,10.672-1.984c16.112,0,30.016,12.144,32.336,28.24l0.992,6.848h10.272
		C367.952,256.728,392.224,281.016,392.224,310.872z"/>
</g>
<g>
</g>
<g>
</g>
<g>
</g>
<g>
</g>
<g>
</g>
<g>
</g>
<g>
</g>
<g>
</g>
<g>
</g>
<g>
</g>
<g>
</g>
<g>
</g>
<g>
</g>
<g>
</g>
<g>
</g>
</svg>
