<?xml version="1.0" encoding="iso-8859-1"?>
<!-- Generator: Adobe Illustrator 19.0.0, SVG Export Plug-In . SVG Version: 6.00 Build 0)  -->
<svg version="1.1" id="Layer_1" xmlns="http://www.w3.org/2000/svg" xmlns:xlink="http://www.w3.org/1999/xlink" x="0px" y="0px"
	 viewBox="0 0 512 512" style="enable-background:new 0 0 512 512;" xml:space="preserve"
	 width="36px" height="36px">
<polygon style="fill:#2B3E62;" points="0,118.904 512,118.904 512,75.704 194.848,75.704 169.184,50.312 30.72,50.312 0,81.032 "/>
<rect y="118.904" style="fill:#3E68B7;" width="512" height="342.768"/>
<g style="opacity:0.5;">
	<rect y="449.112" style="fill:#2B3E62;" width="512" height="12.576"/>
</g>
<g style="opacity:0.3;">
	<path style="fill:#2B3E62;" d="M293.664,263.336l-29.568-94.608l-29.568,94.608h-94.64l76.576,57.824l-29.44,94.272l77.088-58.272
		l77.088,58.272l-29.456-94.272l76.56-57.824H293.664z M311.04,372.584l-46.944-35.488l-46.944,35.488l17.936-57.392l-47.456-35.856
		h58.672l17.808-56.992l17.808,56.992h58.672l-47.472,35.856L311.04,372.584z"/>
</g>
<g>
	<rect x="20.704" y="97.32" style="fill:#FFFFFF;" width="470.592" height="21.584"/>
	<path style="fill:#FFFFFF;" d="M285.568,255.24L256,160.632l-29.568,94.608h-94.64l76.576,57.824l-29.44,94.256L256,349.064
		l77.088,58.256l-29.456-94.256l76.56-57.824L285.568,255.24L285.568,255.24z M302.944,364.472L256,329l-46.944,35.472
		l17.936-57.376l-47.456-35.856h58.672L256,214.248l17.808,56.992h58.672l-47.472,35.856L302.944,364.472z"/>
</g>
<g>
</g>
<g>
</g>
<g>
</g>
<g>
</g>
<g>
</g>
<g>
</g>
<g>
</g>
<g>
</g>
<g>
</g>
<g>
</g>
<g>
</g>
<g>
</g>
<g>
</g>
<g>
</g>
<g>
</g>
</svg>
